<?xml version="1.0" encoding="utf-8"?>
<!-- Generator: Adobe Illustrator 24.1.1, SVG Export Plug-In . SVG Version: 6.00 Build 0)  -->
<svg version="1.1" id="레이어_1" xmlns="http://www.w3.org/2000/svg" xmlns:xlink="http://www.w3.org/1999/xlink" x="0px"
	 y="0px" viewBox="0 0 200 101" style="enable-background:new 0 0 200 101;" xml:space="preserve">
<style type="text/css">
	.st0{fill:#EC125C;}
	.st1{fill:#929496;}
</style>
<g>
	<g>
		<path class="st0" d="M38.29,1.41c4.18,0,7.76,0.47,10.72,1.41c2.96,0.94,5.4,2.27,7.32,3.97c1.92,1.71,3.33,3.75,4.24,6.12
			c0.91,2.37,1.36,4.99,1.36,7.84c0,4.12-0.85,7.43-2.56,9.94c-1.71,2.51-4.24,4.43-7.58,5.75c3.35,1.4,5.93,3.4,7.74,6.01
			c1.81,2.61,2.72,5.98,2.72,10.09c0,2.86-0.45,5.48-1.36,7.84c-0.91,2.37-2.32,4.41-4.24,6.12c-1.92,1.71-4.36,3.05-7.32,4.03
			c-2.96,0.98-6.54,1.46-10.72,1.46H7.22c-3.91,0-5.86-1.92-5.86-5.75V7.16c0-3.83,1.95-5.75,5.86-5.75H38.29z M13.5,31.22h25.1
			c7.25,0,10.88-2.82,10.88-8.47c0-2.79-0.86-5.02-2.56-6.69c-1.71-1.67-4.45-2.51-8.21-2.51H14.86c-0.91,0-1.36,0.42-1.36,1.25
			V31.22z M13.5,58.62c0,0.77,0.45,1.15,1.36,1.15h24.06c3.77,0,6.52-0.8,8.26-2.41c1.74-1.6,2.62-3.87,2.62-6.8
			c0-6.07-3.63-9.1-10.88-9.1H13.5V58.62z"/>
		<path class="st0" d="M75.94,72.01h-13.6L87.13,9.25c1.32-3.35,3.19-5.7,5.6-7.06c2.41-1.36,5.49-2.04,9.26-2.04
			c3.7,0,6.75,0.68,9.15,2.04c2.41,1.36,4.24,3.71,5.49,7.06l23.85,62.76h-13.7l-21.44-56.8c-0.63-1.6-1.78-2.41-3.45-2.41
			c-1.67,0-2.86,0.8-3.56,2.41L75.94,72.01z"/>
		<path class="st0" d="M198.11,1.41v12.34h-27.3c-6.83,0-11.8,1.8-14.9,5.39c-3.1,3.59-4.65,9.47-4.65,17.62
			c0,8.09,1.53,13.93,4.6,17.52c3.07,3.59,8.05,5.39,14.96,5.39h27.3v12.34h-27.3c-10.32,0-18.22-2.91-23.69-8.73
			c-5.47-5.82-8.21-14.66-8.21-26.52c0-11.92,2.74-20.8,8.21-26.62c5.47-5.82,13.37-8.73,23.69-8.73H198.11z"/>
	</g>
</g>
<g>
	<g>
		<path class="st1" d="M1.42,88.01h4.51c1.21,0,2.11,0.28,2.68,0.84c0.58,0.56,0.87,1.25,0.87,2.07c0,0.57-0.13,1.11-0.38,1.61
			c-0.25,0.5-0.58,0.85-0.97,1.05v0.03c1.64,0.23,2.45,1.25,2.45,3.06c0,1.05-0.37,1.87-1.12,2.46c-0.75,0.59-1.81,0.88-3.18,0.88
			H1.42V88.01z M4.55,90.4v2.33h0.33c0.61,0,1.04-0.09,1.31-0.27c0.27-0.18,0.4-0.48,0.4-0.89c0-0.41-0.13-0.71-0.4-0.89
			c-0.27-0.18-0.71-0.27-1.34-0.27H4.55z M4.55,95.05v2.58h0.4c0.99,0,1.65-0.11,1.99-0.32c0.33-0.22,0.49-0.54,0.49-0.96
			c0-0.45-0.16-0.78-0.47-0.99c-0.31-0.21-0.82-0.32-1.51-0.32H4.55z"/>
		<path class="st1" d="M12.21,88.01h3.12v9.37h3.74v2.64h-6.87V88.01z"/>
		<path class="st1" d="M25.34,91.72H25.3l-2.98,8.3h-3.31l4.62-12.01h3.41l4.52,12.01h-3.33L25.34,91.72z"/>
		<path class="st1" d="M40.93,92.04c-0.31-0.41-0.7-0.74-1.19-0.97c-0.48-0.23-1-0.35-1.55-0.35c-0.61,0-1.15,0.14-1.64,0.42
			c-0.49,0.28-0.87,0.67-1.15,1.18c-0.28,0.5-0.41,1.08-0.41,1.73c0,0.95,0.3,1.73,0.89,2.36c0.61,0.61,1.39,0.91,2.36,0.91
			c0.51,0,1-0.11,1.47-0.33c0.47-0.22,0.88-0.54,1.22-0.94v3.74c-0.67,0.2-1.21,0.35-1.61,0.43c-0.4,0.08-0.79,0.13-1.15,0.13
			c-1.13,0-2.18-0.27-3.17-0.8s-1.78-1.28-2.37-2.25c-0.6-0.96-0.89-2.05-0.89-3.26c0-1.17,0.29-2.24,0.86-3.2
			c0.56-0.97,1.34-1.73,2.33-2.29c0.99-0.56,2.04-0.84,3.15-0.84c0.87,0,1.82,0.2,2.85,0.61V92.04z"/>
		<path class="st1" d="M42.86,88.01h3.12v4.96h0.03l3.78-4.96h3.87l-4.78,5.69l5.21,6.33h-4.05l-4.03-5.21h-0.03v5.21h-3.12V88.01z"
			/>
		<path class="st1" d="M53.52,88.01h3.74l2.25,3.27l2.25-3.27h3.74l-4.43,6.25v5.77h-3.12v-5.77L53.52,88.01z"/>
		<path class="st1" d="M69.87,91.72h-0.03l-2.98,8.3h-3.31l4.62-12.01h3.41l4.52,12.01h-3.33L69.87,91.72z"/>
		<path class="st1" d="M77.07,88.01h3.12v4.96h0.03L84,88.01h3.87l-4.78,5.69l5.21,6.33h-4.05l-4.03-5.21h-0.03v5.21h-3.12V88.01z"
			/>
		<path class="st1" d="M99.85,91.72h-0.03l-2.98,8.3h-3.31l4.62-12.01h3.41l4.52,12.01h-3.33L99.85,91.72z"/>
		<path class="st1" d="M107.05,88.01h3.12v9.37h3.74v2.64h-6.87V88.01z"/>
		<path class="st1" d="M114.94,88.01h4.84c1.37,0,2.43,0.34,3.18,1.02c0.75,0.68,1.12,1.66,1.12,2.93c0,2.72-1.39,4.08-4.17,4.08
			h-1.85v3.98h-3.12V88.01z M118.06,90.52v3h0.67c0.58,0,1.01-0.04,1.29-0.13c0.27-0.1,0.47-0.25,0.61-0.47
			c0.14-0.22,0.21-0.51,0.21-0.87c0-0.39-0.07-0.7-0.2-0.91c-0.13-0.21-0.33-0.37-0.6-0.48c-0.26-0.1-0.77-0.14-1.55-0.14H118.06z"
			/>
		<path class="st1" d="M125.47,88.01h3.12v12.01h-3.12V88.01z"/>
		<path class="st1" d="M130.63,88.01h3.12l5.72,7.34h0.03v-7.34h3.12v12.01h-3.12l-5.72-7.36h-0.03v7.36h-3.12V88.01z"/>
		<path class="st1" d="M144.67,88.01h6.83v2.64h-3.71v2.01h3.52v2.64h-3.52v2.07h3.71v2.64h-6.83V88.01z"/>
		<path class="st1" d="M167.1,92.04c-0.31-0.41-0.7-0.74-1.19-0.97c-0.48-0.23-1-0.35-1.55-0.35c-0.61,0-1.15,0.14-1.64,0.42
			c-0.49,0.28-0.87,0.67-1.15,1.18c-0.28,0.5-0.41,1.08-0.41,1.73c0,0.95,0.3,1.73,0.89,2.36c0.61,0.61,1.39,0.91,2.36,0.91
			c0.51,0,1-0.11,1.47-0.33c0.47-0.22,0.88-0.54,1.22-0.94v3.74c-0.67,0.2-1.21,0.35-1.61,0.43c-0.4,0.08-0.79,0.13-1.15,0.13
			c-1.13,0-2.18-0.27-3.17-0.8s-1.78-1.28-2.37-2.25c-0.6-0.96-0.89-2.05-0.89-3.26c0-1.17,0.29-2.24,0.86-3.2
			c0.56-0.97,1.34-1.73,2.33-2.29c0.99-0.56,2.04-0.84,3.15-0.84c0.87,0,1.82,0.2,2.85,0.61V92.04z"/>
		<path class="st1" d="M169.03,88.01h3.12v9.37h3.74v2.64h-6.87V88.01z"/>
		<path class="st1" d="M176.66,88.01h3.12v6.44c0,0.69,0.04,1.25,0.14,1.69c0.09,0.44,0.29,0.79,0.59,1.06
			c0.3,0.27,0.77,0.41,1.39,0.41c0.73,0,1.27-0.24,1.61-0.71c0.34-0.47,0.51-1.28,0.51-2.43v-6.45h3.12v6.9
			c0,1.37-0.18,2.41-0.53,3.11c-0.36,0.73-0.95,1.3-1.77,1.71c-0.82,0.41-1.8,0.61-2.95,0.61c-1.16,0-2.13-0.2-2.92-0.59
			c-0.56-0.28-1.01-0.61-1.35-1.01c-0.33-0.4-0.58-0.9-0.74-1.51c-0.16-0.61-0.24-1.38-0.24-2.32V88.01z"/>
		<path class="st1" d="M189.12,88.01h4.51c1.21,0,2.11,0.28,2.68,0.84c0.58,0.56,0.87,1.25,0.87,2.07c0,0.57-0.13,1.11-0.38,1.61
			c-0.25,0.5-0.58,0.85-0.97,1.05v0.03c1.64,0.23,2.45,1.25,2.45,3.06c0,1.05-0.37,1.87-1.12,2.46c-0.75,0.59-1.81,0.88-3.18,0.88
			h-4.86V88.01z M192.24,90.4v2.33h0.33c0.61,0,1.04-0.09,1.31-0.27c0.27-0.18,0.4-0.48,0.4-0.89c0-0.41-0.13-0.71-0.4-0.89
			c-0.27-0.18-0.71-0.27-1.34-0.27H192.24z M192.24,95.05v2.58h0.4c0.99,0,1.65-0.11,1.99-0.32c0.33-0.22,0.49-0.54,0.49-0.96
			c0-0.45-0.16-0.78-0.47-0.99c-0.31-0.21-0.82-0.32-1.51-0.32H192.24z"/>
	</g>
</g>
<path class="st0" d="M110.15,49.64c0,4.5-3.65,8.15-8.15,8.15s-8.15-3.65-8.15-8.15c0-4.5,3.65-8.15,8.15-8.15
	S110.15,45.14,110.15,49.64z"/>
</svg>
